# xmcd
#
# Track frame offsets:
#	150
#	12347
#	25015
#	37520
#	51792
#	62975
#	76550
#	91847
#	105467
#	116512
#	126902
#	139032
#	152722
#	164297
#
# Disc length: 2368
#
# Revision: 2
# Processed by: cddbd v1.5.1PL0 Copyright (c) Steve Scherf et al.
# Submitted via: audiograbber 1.83.01
# Normalized: r1:DSETVAR1
#
DISCID=9d093e0e
DTITLE=Various Artist - I'm In The Mood For The Blues CD1
DYEAR=1900
DGENRE=Blues
TTITLE0=John Lee Hooker - I'm In The Mood For The Blues
TTITLE1=Muddy Waters - I'm Your Hoochie Coochie Man
TTITLE2=Buddy Guy - I Suffer With The Blues
TTITLE3=Otis Rush - So Many Roads, So Many Trains
TTITLE4=Sonny Boy Williamson - Bring It Home To Me
TTITLE5=Bill Big Broonzy and Washboard Sam - By Myself
TTITLE6=Little Milton - Blind Man
TTITLE7=Memphis Slim - I Guess I'm A Fool
TTITLE8=Howlin' Wolf - You'll Be Mine
TTITLE9=T.S. McPhee - Someone To Love Me
TTITLE10=Little Walter - My Babe
TTITLE11=Elmores James - Dust My Broom
TTITLE12=Etta James - I'd Rather Go Blind
TTITLE13=John Lee Hooker - One Bourbon, One Scotch, One Beer
EXTD=
EXTT0=
EXTT1=
EXTT2=
EXTT3=
EXTT4=
EXTT5=
EXTT6=
EXTT7=
EXTT8=
EXTT9=
EXTT10=
EXTT11=
EXTT12=
EXTT13=
PLAYORDER=
